<?xml version="1.0" encoding="UTF-8" standalone="no"?>
<!DOCTYPE svg PUBLIC "-//W3C//DTD SVG 1.1//EN" "http://www.w3.org/Graphics/SVG/1.1/DTD/svg11.dtd">
<svg width="100%" height="100%" viewBox="0 0 1000 1000" version="1.1" xmlns="http://www.w3.org/2000/svg" xmlns:xlink="http://www.w3.org/1999/xlink" xml:space="preserve" xmlns:serif="http://www.serif.com/" style="fill-rule:evenodd;clip-rule:evenodd;stroke-linejoin:round;stroke-miterlimit:2;">
    <g transform="matrix(1,0,0,1,-2250,0)">
        <g transform="matrix(1,0,0,1,2250,0)">
            <rect id="Page-3" serif:id="Page 3" x="0" y="0" width="1000" height="1000" style="fill:none;"/>
            <clipPath id="_clip1">
                <rect id="Page-31" serif:id="Page 3" x="0" y="0" width="1000" height="1000"/>
            </clipPath>
            <g clip-path="url(#_clip1)">
                <g id="Outlines">
                    <g transform="matrix(1,0,0,1,959.655,928.087)">
                        <path d="M0,-206.238C-3.984,-212.909 -11.52,-216.489 -19.198,-215.345C-137.664,-197.768 -257.23,-184.082 -377.358,-174.294C-371.87,-170.635 -368.012,-164.394 -366.793,-157.901C-249.372,-167.665 -132.499,-181.139 -16.673,-198.324C-15.842,-198.448 -15.206,-198.142 -14.773,-197.415C-14.139,-196.355 -14.687,-195.62 -14.868,-195.379C-71.889,-119.006 -147.203,-56.539 -232.665,-14.73C-240.662,-10.818 -248.749,-7.095 -256.913,-3.552C-256.232,-2.953 -255.599,-2.303 -254.994,-1.627C-250.684,1.135 -247.393,5.333 -245.59,10.251C-238.706,7.2 -231.87,4.036 -225.104,0.726C-137.196,-42.279 -59.731,-106.53 -1.08,-185.083C3.549,-191.283 3.973,-199.587 0,-206.238" style="fill:rgb(255,195,0);fill-rule:nonzero;"/>
                    </g>
                    <g transform="matrix(1,0,0,1,33.0887,854.795)">
                        <path d="M0,-63.22C-0.209,-63.435 -0.844,-64.092 -0.356,-65.216C-0.026,-65.976 0.558,-66.354 1.379,-66.339C155.072,-63.622 309.157,-67.331 462.541,-77.376C462.47,-84.206 465.897,-90.789 471.133,-95.199C315.016,-84.7 158.147,-80.778 1.683,-83.545C-6.058,-83.681 -13.054,-79.177 -16.139,-72.068C-19.22,-64.973 -17.737,-56.799 -12.361,-51.249C18.101,-19.791 51.429,8.028 87.043,31.979C91.954,26.65 99.467,23.306 106.468,24.17C68.132,-0.526 32.401,-29.76 0,-63.22" style="fill:rgb(255,195,0);fill-rule:nonzero;"/>
                    </g>
                    <g transform="matrix(1,0,0,1,549.968,822.406)">
                        <path d="M0,-25.456C-7.019,-25.456 -12.728,-19.747 -12.728,-12.728C-12.728,-5.709 -7.019,0 0,0C7.019,0 12.728,-5.709 12.728,-12.728C12.728,-19.747 7.019,-25.456 0,-25.456M0,17.208C-16.507,17.208 -29.935,3.779 -29.935,-12.728C-29.935,-29.234 -16.507,-42.663 0,-42.663C16.507,-42.663 29.935,-29.234 29.935,-12.728C29.935,3.779 16.507,17.208 0,17.208M0,-69.644C-31.383,-69.644 -56.916,-44.111 -56.916,-12.728C-56.916,18.655 -31.383,44.188 0,44.188C31.383,44.188 56.916,18.655 56.916,-12.728C56.916,-44.111 31.383,-69.644 0,-69.644M0,61.395C-40.872,61.395 -74.123,28.144 -74.123,-12.728C-74.123,-53.6 -40.872,-86.851 0,-86.851C40.872,-86.851 74.123,-53.6 74.123,-12.728C74.123,28.144 40.872,61.395 0,61.395" style="fill:rgb(255,195,0);fill-rule:nonzero;"/>
                    </g>
                    <g transform="matrix(1,0,0,1,182.496,152.737)">
                        <path d="M0,491.925C-4.917,493.383 -8.142,498.075 -7.757,503.189C-6.207,523.799 -4.868,544.289 -3.763,564.298C-3.552,568.121 -1.768,571.515 1.26,573.852C4.264,576.171 8.128,577.062 11.862,576.306C103.483,557.649 197.512,545.527 291.34,540.277C293.049,540.181 293.93,539.104 294.302,538.471C294.678,537.831 295.196,536.526 294.439,534.968C282.669,510.718 273.395,489.161 266.876,470.896C255.746,439.72 249.502,412.406 248.318,389.712C247.146,367.213 248.611,344.992 252.671,323.667C254.854,310.432 255.723,296.287 255.255,281.624C254.792,267.066 252.137,251.185 247.363,234.424C242.572,217.607 235.069,199.838 225.062,181.611C213.086,159.797 200.055,142.155 186.331,129.174C172.936,116.505 159.828,108.153 147.373,104.351C135.781,100.815 125.888,101.431 117.136,106.235C109.243,110.568 103.595,118.037 99.869,129.069C95.95,140.676 95.658,156.139 99.001,175.028C100.904,185.787 104.394,197.816 109.374,210.783C119.015,235.889 114.114,259.812 97.454,268.959L97.166,269.117C88.311,273.98 77.826,274.442 66.842,270.455C48.866,263.931 32.451,246.44 24.003,224.81C14.521,200.532 7.745,177.291 3.864,155.735C-3.135,116.858 -2.099,83.332 6.941,56.087C14.396,33.625 26.474,15.891 42.94,3.18C47.119,-0.046 46.723,-6.483 42.203,-9.213C-9.893,-40.674 -68.028,-72.086 -100.509,-81.656C-104.513,-82.836 -108.242,-79.16 -107.145,-75.131C-65.636,77.352 -35.72,234.272 -18.15,391.72C-17.805,394.813 -15.773,397.455 -12.87,398.576L105.912,444.442C109.347,445.767 111.558,449.133 111.41,452.812C111.262,456.492 108.79,459.67 105.259,460.715L0,491.925ZM7.918,593.75C1.738,593.481 -4.266,591.323 -9.255,587.473C-16.2,582.111 -20.461,574.011 -20.944,565.246C-22.322,540.298 -24.066,514.593 -26.13,488.843C-26.455,484.791 -23.898,481.063 -20,479.908L63.649,455.105C67.716,453.899 67.944,448.225 63.987,446.697L-28.677,410.918C-31.681,409.758 -33.786,407.018 -34.132,403.817C-51.996,238.678 -83.535,74.012 -127.872,-85.606C-129.006,-89.733 -128.227,-93.895 -125.738,-97.047C-123.245,-100.204 -119.366,-101.931 -115.096,-101.784C-114.977,-101.779 -114.852,-101.774 -114.732,-101.769C-76.177,-100.093 23.727,-40.902 64.989,-15.467C69.449,-12.718 72.03,-7.955 71.896,-2.728C71.76,2.539 68.91,7.201 64.271,9.741C44.645,20.516 31.262,37.434 23.272,61.507C15.148,85.992 14.316,116.67 20.8,152.687C24.483,173.148 30.954,195.307 40.031,218.55C46.629,235.444 59.458,249.469 72.713,254.28C77.031,255.848 83.342,257.078 88.885,254.034L89.173,253.875C97.797,249.14 99.576,233.267 93.31,216.952C87.937,202.961 84.151,189.864 82.057,178.026C78.205,156.262 78.712,137.938 83.567,123.562C88.665,108.469 97.173,97.565 108.855,91.152C121.707,84.097 136.354,83.001 152.396,87.892C167.417,92.479 182.812,102.162 198.155,116.673C213.179,130.884 227.307,149.946 240.146,173.331C250.772,192.686 258.768,211.655 263.912,229.71C269.072,247.827 271.945,265.11 272.453,281.076C272.958,296.898 272.009,312.208 269.63,326.581C269.618,326.65 269.606,326.719 269.593,326.789C265.776,346.79 264.4,367.659 265.501,388.815C266.599,409.839 272.513,435.509 283.081,465.111C289.392,482.791 298.421,503.766 309.919,527.453C312.984,533.766 312.69,541.145 309.136,547.191C305.587,553.228 299.293,557.066 292.301,557.457C199.301,562.662 106.103,574.676 15.295,593.166C12.845,593.665 10.367,593.856 7.918,593.75" style="fill:rgb(255,195,0);fill-rule:nonzero;"/>
                    </g>
                    <g transform="matrix(1,0,0,1,669.976,100.517)">
                        <path d="M0,591.29C39.351,593.001 79.141,595.923 118.265,599.978C120.292,600.196 121.583,599.119 122.167,598.465C122.757,597.8 123.682,596.382 123.228,594.351C104.805,511.958 73.791,433.118 31.027,359.952L-62.948,349.27C-66.517,348.864 -69.46,346.283 -70.326,342.796C-71.193,339.31 -69.801,335.652 -66.837,333.622L-14.583,297.852C-12.562,296.468 -12.071,293.682 -13.51,291.698C-62.689,223.903 -121.608,164.223 -188.796,114.17C-236.808,78.403 -288.225,48.174 -342.392,23.824C-345.492,22.43 -347.891,26.775 -345.058,28.655C-309.502,52.255 -292.445,65.898 -289.794,68.053C-289.401,68.373 -289.034,68.694 -288.666,69.04L-264.826,91.399C-237.365,117.885 -211.75,152.645 -188.605,194.799C-172.726,223.722 -160.504,251.41 -152.279,277.096C-144.015,302.913 -138.985,327.627 -137.33,350.551C-135.67,373.526 -136.846,395.659 -140.824,416.335C-144.046,434.985 -145.042,453.258 -143.783,470.645C-142.528,487.969 -138.056,507.261 -130.489,527.985C-124.745,543.712 -116.683,561.91 -106.53,582.069C-104.266,586.565 -99.557,589.448 -94.582,589.435C-63.213,589.302 -31.39,589.926 0,591.29M117.782,617.189C117.352,617.17 116.922,617.138 116.491,617.094C77.707,613.075 38.263,610.177 -0.747,608.481C-31.866,607.128 -63.411,606.51 -94.51,606.641C-106.141,606.707 -116.644,600.24 -121.898,589.808C-132.35,569.055 -140.678,550.24 -146.651,533.887C-154.767,511.663 -159.576,490.804 -160.946,471.888C-162.308,453.08 -161.237,433.374 -157.764,413.318C-157.754,413.265 -157.744,413.211 -157.734,413.157C-154.03,393.939 -152.939,373.292 -154.494,351.791C-156.049,330.226 -160.818,306.861 -168.667,282.342C-176.556,257.706 -188.339,231.038 -203.688,203.081C-225.999,162.446 -250.558,129.066 -276.684,103.867L-300.441,81.588C-300.511,81.526 -300.576,81.469 -300.647,81.406C-304.606,78.186 -342.113,48.213 -428.879,-3.613C-433.974,-6.656 -435.89,-12.79 -433.433,-18.199C-430.981,-23.594 -425.114,-26.182 -419.482,-24.349C-332.882,3.808 -251.809,45.771 -178.516,100.371C-106.335,154.144 -43.504,218.8 8.229,292.542C9.548,294.424 10.061,296.757 9.651,299.018C9.241,301.28 7.942,303.284 6.045,304.583L-27.247,327.373C-30.981,329.929 -29.535,335.75 -25.039,336.261L37.239,343.339C39.918,343.644 42.301,345.188 43.673,347.508C88.477,423.267 120.893,505.054 140.019,590.597C141.551,597.446 139.683,604.663 135.023,609.901C130.663,614.802 124.297,617.472 117.782,617.189" style="fill:rgb(255,195,0);fill-rule:nonzero;"/>
                    </g>
                    <g transform="matrix(1,0,0,1,991.396,877.183)">
                        <path d="M0,71.873C-33.988,71.873 -51.604,56.195 -67.148,42.364C-82.317,28.866 -95.416,17.208 -122.855,17.208C-150.296,17.208 -163.395,28.866 -178.564,42.364C-194.107,56.196 -211.723,71.873 -245.711,71.873C-279.697,71.873 -297.314,56.195 -312.856,42.363C-328.023,28.866 -341.123,17.208 -368.561,17.208C-395.999,17.208 -409.097,28.866 -424.264,42.364C-439.806,56.195 -457.422,71.873 -491.407,71.873C-525.393,71.873 -543.009,56.195 -558.551,42.363C-573.719,28.866 -586.817,17.208 -614.255,17.208C-641.693,17.208 -654.791,28.866 -669.959,42.364C-685.5,56.195 -703.116,71.873 -737.102,71.873C-771.087,71.873 -788.703,56.195 -804.245,42.364C-819.413,28.866 -832.512,17.208 -859.95,17.208C-887.387,17.208 -900.484,28.866 -915.651,42.363C-931.193,56.195 -948.808,71.873 -982.793,71.873C-987.544,71.873 -991.396,68.021 -991.396,63.269C-991.396,58.518 -987.544,54.666 -982.793,54.666C-955.356,54.666 -942.258,43.008 -927.091,29.509C-911.549,15.678 -893.934,0 -859.95,0C-825.963,0 -808.348,15.678 -792.806,29.509C-777.638,43.008 -764.54,54.666 -737.102,54.666C-709.664,54.666 -696.566,43.008 -681.398,29.509C-665.857,15.678 -648.24,0 -614.255,0C-580.269,0 -562.654,15.678 -547.112,29.509C-531.944,43.008 -518.845,54.666 -491.407,54.666C-463.969,54.666 -450.871,43.008 -435.704,29.509C-420.161,15.678 -402.546,0 -368.561,0C-334.574,0 -316.959,15.677 -301.417,29.509C-286.249,43.008 -273.15,54.666 -245.711,54.666C-218.271,54.666 -205.171,43.008 -190.003,29.509C-174.46,15.678 -156.843,0 -122.855,0C-88.868,0 -71.252,15.677 -55.709,29.509C-40.54,43.008 -27.441,54.666 0,54.666C4.752,54.666 8.604,58.518 8.604,63.269C8.604,68.021 4.752,71.873 0,71.873" style="fill:rgb(255,195,0);fill-rule:nonzero;"/>
                    </g>
                </g>
            </g>
        </g>
    </g>
</svg>
